<?xml version="1.0" standalone="no"?>
<!DOCTYPE svg PUBLIC "-//W3C//DTD SVG 20010904//EN"
 "http://www.w3.org/TR/2001/REC-SVG-20010904/DTD/svg10.dtd">
<svg version="1.0" xmlns="http://www.w3.org/2000/svg"
 width="157.000000pt" height="69.000000pt" viewBox="0 0 157.000000 69.000000"
 preserveAspectRatio="xMidYMid meet">

<g transform="translate(0.000000,69.000000) scale(0.100000,-0.100000)"
fill="#000000" stroke="none">
<path d="M174 633 c3 -6 -2 -16 -11 -22 -10 -5 -15 -12 -12 -15 3 -3 14 1 25
8 16 13 17 17 5 28 -8 8 -11 8 -7 1z"/>
<path d="M200 619 c0 -5 5 -7 10 -4 6 3 10 8 10 11 0 2 -4 4 -10 4 -5 0 -10
-5 -10 -11z"/>
<path d="M216 594 c-11 -8 -15 -14 -9 -14 7 0 15 5 18 10 10 16 25 1 18 -18
-5 -14 -3 -15 8 -4 11 10 11 14 -1 26 -13 13 -18 13 -34 0z"/>
<path d="M155 490 c-3 -5 1 -10 10 -10 9 0 13 5 10 10 -3 6 -8 10 -10 10 -2 0
-7 -4 -10 -10z"/>
<path d="M195 490 c3 -5 11 -10 16 -10 6 0 7 5 4 10 -3 6 -11 10 -16 10 -6 0
-7 -4 -4 -10z"/>
<path d="M548 435 c2 -14 6 -25 8 -25 2 0 4 11 4 25 0 14 -4 25 -9 25 -4 0 -6
-11 -3 -25z"/>
<path d="M640 435 c13 -14 28 -25 33 -25 6 0 0 11 -13 25 -13 14 -28 25 -33
25 -6 0 0 -11 13 -25z"/>
<path d="M712 430 c0 -19 2 -27 5 -17 2 9 2 25 0 35 -3 9 -5 1 -5 -18z"/>
<path d="M750 451 c0 -6 4 -13 10 -16 6 -3 7 1 4 9 -7 18 -14 21 -14 7z"/>
<path d="M832 430 c0 -19 2 -27 5 -17 2 9 2 25 0 35 -3 9 -5 1 -5 -18z"/>
<path d="M898 435 c2 -14 6 -25 8 -25 2 0 4 11 4 25 0 14 -4 25 -9 25 -4 0 -6
-11 -3 -25z"/>
<path d="M923 440 c-1 -11 2 -22 6 -24 4 -3 7 4 6 14 -2 27 -10 33 -12 10z"/>
<path d="M1020 435 c0 -14 2 -25 4 -25 2 0 6 11 8 25 3 14 1 25 -3 25 -5 0 -9
-11 -9 -25z"/>
<path d="M1082 430 c0 -19 2 -27 5 -17 2 9 2 25 0 35 -3 9 -5 1 -5 -18z"/>
<path d="M1143 436 c7 -14 13 -23 15 -21 7 6 -9 45 -18 45 -4 0 -3 -11 3 -24z"/>
<path d="M1286 447 c3 -10 9 -15 12 -12 3 3 0 11 -7 18 -10 9 -11 8 -5 -6z"/>
<path d="M1328 435 c2 -14 6 -25 8 -25 2 0 4 11 4 25 0 14 -4 25 -9 25 -4 0
-6 -11 -3 -25z"/>
<path d="M960 442 c0 -4 9 -13 20 -20 11 -7 20 -9 20 -4 0 4 -9 13 -20 20 -11
7 -20 9 -20 4z"/>
<path d="M177 433 c7 -2 11 -10 9 -16 -1 -7 -1 -9 1 -4 3 4 8 5 13 2 4 -3 10
1 13 8 3 7 -5 12 -22 13 -14 1 -21 -1 -14 -3z"/>
<path d="M1240 431 c0 -6 4 -13 10 -16 6 -3 7 1 4 9 -7 18 -14 21 -14 7z"/>
<path d="M70 325 c0 -20 7 -52 15 -73 16 -37 91 -122 109 -122 20 0 77 53 101
94 14 23 28 64 31 89 l7 47 -132 0 -131 0 0 -35z m108 -1 c2 -16 -3 -23 -20
-25 -40 -7 -68 1 -68 20 0 26 10 32 50 29 27 -2 36 -8 38 -24z m120 -1 c3 -24
2 -24 -58 -27 -24 -1 -30 3 -30 20 0 29 9 35 50 32 28 -2 36 -8 38 -25z m-64
-59 c37 -14 -1 -105 -43 -104 -12 1 -10 6 8 20 21 18 21 20 5 21 -44 3 -49 5
-46 17 1 6 -5 12 -13 12 -25 0 -17 18 13 28 33 12 55 14 76 6z"/>
<path d="M425 340 c-4 -7 2 -9 19 -4 26 6 26 6 26 -54 0 -39 -4 -62 -12 -65
-7 -3 1 -6 19 -6 30 -1 31 0 21 27 -13 34 -2 102 15 102 7 0 19 -6 26 -12 11
-11 13 -10 9 2 -6 18 -112 27 -123 10z"/>
<path d="M590 330 c-28 -28 -27 -84 2 -104 12 -9 32 -16 43 -15 14 0 16 2 5 6
-48 18 -68 85 -35 113 40 33 91 -39 65 -92 l-11 -23 20 24 c28 31 26 57 -4 86
-29 30 -58 32 -85 5z"/>
<path d="M735 278 c0 -65 1 -68 24 -68 17 0 21 3 14 13 -12 15 -14 105 -3 112
14 9 40 -6 40 -22 0 -9 -8 -21 -17 -28 -15 -12 -14 -15 14 -44 38 -38 62 -42
28 -5 -27 29 -30 40 -15 49 17 10 11 44 -9 54 -10 6 -31 9 -47 8 -29 -2 -29
-2 -29 -69z"/>
<path d="M895 325 c-14 -13 -25 -33 -25 -45 0 -26 43 -70 68 -70 34 0 65 34
65 70 0 22 -7 39 -22 52 -31 25 -57 23 -86 -7z m67 -2 c27 -30 30 -58 10 -83
-22 -28 -54 -21 -70 16 -16 34 -15 50 4 68 20 21 37 20 56 -1z"/>
<path d="M1040 335 c7 -9 11 -36 8 -69 -3 -47 -1 -54 14 -53 12 1 14 5 8 11
-6 6 -10 28 -10 50 l1 41 49 -53 50 -53 0 58 c0 33 5 64 12 71 9 9 5 12 -17
11 -17 0 -24 -3 -17 -6 7 -3 12 -22 12 -46 l0 -41 -48 47 c-26 26 -54 47 -61
47 -11 0 -11 -3 -1 -15z"/>
<path d="M1206 335 c-4 -13 -2 -14 14 -5 11 6 25 8 30 5 15 -9 13 -112 -2
-118 -7 -3 3 -6 22 -6 26 -1 31 2 22 11 -7 7 -12 34 -12 60 0 52 18 71 45 48
13 -11 14 -10 9 4 -9 22 -119 23 -128 1z"/>
<path d="M1375 325 c-14 -13 -25 -33 -25 -45 0 -26 43 -70 68 -70 34 0 65 34
65 70 0 22 -7 39 -22 52 -31 25 -57 23 -86 -7z m67 -2 c22 -19 24 -76 3 -93
-20 -16 -50 -4 -63 26 -16 34 -15 50 4 68 20 20 33 20 56 -1z"/>
<path d="M822 90 c0 -19 2 -27 5 -17 2 9 2 25 0 35 -3 9 -5 1 -5 -18z"/>
<path d="M946 107 c3 -10 9 -15 12 -12 3 3 0 11 -7 18 -10 9 -11 8 -5 -6z"/>
<path d="M1202 90 c0 -19 2 -27 5 -17 2 9 2 25 0 35 -3 9 -5 1 -5 -18z"/>
<path d="M1402 90 c0 -19 2 -27 5 -17 2 9 2 25 0 35 -3 9 -5 1 -5 -18z"/>
<path d="M1452 90 c0 -19 2 -27 5 -17 2 9 2 25 0 35 -3 9 -5 1 -5 -18z"/>
<path d="M745 91 c-3 -5 -2 -12 3 -15 5 -3 9 1 9 9 0 17 -3 19 -12 6z"/>
<path d="M900 86 c0 -8 4 -17 9 -20 5 -4 7 3 4 14 -6 23 -13 26 -13 6z"/>
<path d="M1090 86 c0 -8 4 -17 9 -20 5 -4 7 3 4 14 -6 23 -13 26 -13 6z"/>
<path d="M1011 87 c2 -1 13 -9 24 -17 19 -14 19 -14 6 3 -7 9 -18 17 -24 17
-6 0 -8 -1 -6 -3z"/>
</g>
</svg>
